Coordinates
version=1
nRows=8
nColumns=36
inDegrees=yes

Units are S.I. units (second, meters, Newtons, ...)
If the header above contains a line with 'inDegrees', this indicates whether rotational values are in degrees (yes) or radians (no).

endheader
time	pelvis_tilt	pelvis_list	pelvis_rotation	pelvis_tx	pelvis_ty	pelvis_tz	hip_flexion_r	hip_adduction_r	hip_rotation_r	knee_angle_r	knee_angle_r_beta	ankle_angle_r	subtalar_angle_r	mtp_angle_r	hip_flexion_l	hip_adduction_l	hip_rotation_l	knee_angle_l	knee_angle_l_beta	ankle_angle_l	subtalar_angle_l	mtp_angle_l	lumbar_extension	lumbar_bending	lumbar_rotation	arm_flex_r	arm_add_r	arm_rot_r	elbow_flex_r	pro_sup_r	arm_flex_l	arm_add_l	arm_rot_l	elbow_flex_l	pro_sup_l
     29.76666670	     -2.68936243	      1.89388189	     -1.17822795	      0.66591054	      1.02166335	      0.78869485	     26.73817736	     -3.95454496	     -4.84090503	      5.43773119	      0.09490631	     10.30951138	      4.55846807	     -7.49999987	     -7.21284644	      1.73214130	     -7.14585827	     10.15543877	      0.17724584	     18.08888071	      1.21298120	     -7.49999987	     -6.84732336	      1.84306617	     -3.71381679	     -0.41678691	     -9.74249132	     -4.80227693	     11.99276065	     70.84962767	     11.70789834	    -13.68045802	    -11.18080128	     45.70145643	     69.15516208
     29.78333330	     -2.75432143	      0.77625628	     -1.11057837	      0.66457903	      1.01780234	      0.79022402	     27.06644074	     -2.69779614	     -5.76480746	      4.28004880	      0.07470094	     11.10593342	      5.44412638	     -7.49999987	     -8.32914154	      0.18924987	     -8.31246144	     11.16468829	      0.19486057	     17.15589026	      0.00666954	     -7.49999987	     -6.51088700	      3.17886909	     -3.90441436	     -0.28776889	    -10.04975485	     -4.95997706	     11.25721175	     71.10641323	     12.45810142	    -13.37128774	    -11.38410024	     47.36614207	     68.59287101
     29.80000000	     -2.95275352	     -0.67865396	     -1.08425058	      0.66569842	      1.01380642	      0.79139905	     27.31698478	     -1.09646159	     -6.67776157	      4.52594028	      0.07899256	     11.10372128	      5.38814797	     -7.49999987	     -9.05843371	     -1.81060836	     -9.77009940	     13.03729435	      0.22754371	     15.74729360	     -1.30541193	     -7.49999987	     -5.92251124	      4.91353552	     -4.16209980	     -0.16556904	    -10.61987936	     -4.66671567	     10.15467923	     71.76151768	     12.74475408	    -12.88477714	    -11.71273195	     48.97524820	     68.06347633
     29.81666670	     -3.28519865	     -2.39625750	     -1.05493668	      0.67007444	      1.01170156	      0.79257487	     27.55538429	      0.74499926	     -7.50196905	      6.06098903	      0.10578421	     10.09157777	      4.71041808	     -7.49999987	     -9.44302024	     -4.13606356	    -10.99811655	     15.66757376	      0.27345075	     13.89426066	     -2.50615208	     -7.49999987	     -5.09602196	      6.89652249	     -4.23603722	     -0.31131864	    -11.22322361	     -4.17045432	      9.11413722	     72.30297148	     12.84211273	    -12.22150558	    -11.98825560	     50.01424800	     67.64804242
     29.83333330	     -3.48545997	     -4.14668361	     -0.95159290	      0.67523120	      1.01229430	      0.79397949	     27.59279268	      2.57302885	     -8.02859146	      8.15761473	      0.14237724	      8.35949362	      3.63195831	     -7.49999987	     -9.87875258	     -6.43590608	    -11.79428170	     18.41498347	      0.32140209	     11.73994761	     -3.50859091	     -7.49999987	     -4.37606025	      8.92285693	     -4.44858112	     -0.49790155	    -11.88632108	     -3.26213051	      8.24121737	     73.29845398	     12.55447430	    -11.43412705	    -12.17758231	     50.97068861	     67.37767815
     29.85000000	     -3.61094075	     -5.71346286	     -0.80887915	      0.67776200	      1.01192238	      0.79507777	     27.57776913	      4.22673070	     -8.07183464	     10.21856091	      0.17834753	      6.54004779	      2.19211426	     -7.49999987	    -10.25146781	     -8.42119271	    -12.05218512	     20.91173118	      0.36497856	      9.42740726	     -4.53427047	     -7.49999987	     -3.79229730	     10.70068679	     -4.39659171	     -0.78324696	    -12.45463375	     -2.81304547	      7.49266976	     74.52276592	     12.44870790	    -10.59421180	    -11.76899314	     51.41073520	     67.51112557
     29.86666670	     -3.69110157	     -7.11001346	     -0.55945957	      0.67755084	      1.00671582	      0.79525645	     27.58605501	      5.68737500	     -7.89864410	     12.11098463	      0.21137656	      5.15649944	      0.37174058	     -7.49999987	    -10.28957813	    -10.15556475	    -11.75321309	     23.39568237	      0.40833169	      7.08172325	     -5.76662688	     -7.49999987	     -3.44307228	     12.26281412	     -4.20960642	     -1.11775212	    -12.91285041	     -2.62663016	      7.18131833	     73.24713216	     12.47225232	     -9.73081254	    -11.17671068	     51.82389710	     66.66555187
     29.88333330	     -3.75482706	     -8.39358376	     -0.24180858	      0.67682164	      1.00015035	      0.79566767	     27.65780962	      7.02025367	     -7.68389895	     13.97418304	      0.24389550	      4.46615661	     -1.60779406	     -7.49999987	     -9.84602947	    -11.78928139	    -11.17233528	     26.19846570	      0.45724949	      4.57687607	     -6.98344956	     -7.49999987	     -3.26703662	     13.68768497	     -3.90403910	     -1.41586620	    -13.37698786	     -2.46502778	      7.40889125	     72.88432385	     12.63284520	     -8.99695338	    -10.12136237	     52.10484205	     66.45114221
